<svg xmlns="http://www.w3.org/2000/svg" viewBox="0 0 600 200">
  <defs>
    <linearGradient id="mGrad" x1="0%" y1="0%" x2="100%" y2="100%">
      <stop offset="0%" stop-color="#ff7a18"/>
      <stop offset="100%" stop-color="#ff3c00"/>
    </linearGradient>
  </defs>
  <rect width="100%" height="100%" fill="none"/>
  <path d="M60 150 C70 85, 85 40, 100 95 C110 130, 120 155, 130 105 C140 55, 160 45, 170 105 C180 155, 195 135, 210 75"
        stroke="url(#mGrad)" stroke-width="18" fill="none" stroke-linecap="round" stroke-linejoin="round"/>
  <path d="M60 150 C70 85, 85 40, 100 95 C110 130, 120 155, 130 105 C140 55, 160 45, 170 105 C180 155, 195 135, 210 75"
        stroke="#ff3c00" stroke-width="10" fill="none" stroke-linecap="round" stroke-linejoin="round" opacity="0.4"/>
  <text x="240" y="135" font-family="Arial, Helvetica, sans-serif" font-size="92" font-weight="800" fill="#111111" letter-spacing="1.5">PLOY</text>
</svg>
